<svg width="40" height="40" viewBox="-2.4 -2.4 28.80 28.80" xmlns="http://www.w3.org/2000/svg" fill="none"><g id="SVGRepo_bgCarrier" stroke-width="0"></g><g id="SVGRepo_tracerCarrier" stroke-linecap="round" stroke-linejoin="round"></g><g id="SVGRepo_iconCarrier"><path stroke="#fa6728" stroke-linecap="round" stroke-linejoin="round" stroke-width="2.4" d="M20 20v-3a4 4 0 0 0-4-4h-1a1 1 0 0 1-1-1V6a2 2 0 0 0-2-2v0a2 2 0 0 0-2 2v10l-2.4-3.2A2 2 0 0 0 6 12h-.382C4.724 12 4 12.724 4 13.618v0c0 .251.058.499.17.724L7 20"></path></g></svg>